<svg id="code" xmlns="http://www.w3.org/2000/svg" width="32.843" height="28.977" viewBox="0 0 32.843 28.977">
  <path id="Trazado_58" data-name="Trazado 58" d="M119.05,188.049a.54.54,0,0,1-.351-.13l-3.509-2.988a.542.542,0,0,1,0-.826l3.509-2.988a.542.542,0,1,1,.7.825l-3.024,2.575,3.024,2.575a.542.542,0,0,1-.352.955Zm0,0" transform="translate(-106.092 -166.969)"/>
  <path id="Trazado_59" data-name="Trazado 59" d="M250.25,188.049a.543.543,0,0,1-.352-.955l3.024-2.575-3.024-2.575a.542.542,0,0,1,.7-.825l3.509,2.988a.542.542,0,0,1,0,.826l-3.509,2.988A.54.54,0,0,1,250.25,188.049Zm0,0" transform="translate(-230.365 -166.969)"/>
  <path id="Trazado_60" data-name="Trazado 60" d="M189.5,164.491a.552.552,0,0,1-.113-.012.542.542,0,0,1-.419-.642l2.187-10.382a.542.542,0,1,1,1.061.224l-2.187,10.382A.542.542,0,0,1,189.5,164.491Zm0,0" transform="translate(-174.317 -141.171)"/>
  <path id="Trazado_61" data-name="Trazado 61" d="M29.2,28.977H3.641A3.645,3.645,0,0,1,0,25.336V3.641A3.645,3.645,0,0,1,3.641,0H29.2a3.645,3.645,0,0,1,3.641,3.641v21.7A3.645,3.645,0,0,1,29.2,28.977ZM3.641,1.084A2.559,2.559,0,0,0,1.084,3.641v21.7a2.559,2.559,0,0,0,2.556,2.556H29.2a2.559,2.559,0,0,0,2.556-2.556V3.641A2.559,2.559,0,0,0,29.2,1.084Zm0,0"/>
  <path id="Trazado_62" data-name="Trazado 62" d="M32.3,99.174H.542a.542.542,0,1,1,0-1.084H32.3a.542.542,0,1,1,0,1.084Zm0,0" transform="translate(0 -90.492)"/>
  <path id="Trazado_63" data-name="Trazado 63" d="M99.165,37.721A1.716,1.716,0,1,1,100.881,36,1.718,1.718,0,0,1,99.165,37.721Zm0-2.347A.631.631,0,1,0,99.8,36,.632.632,0,0,0,99.165,35.373Zm0,0" transform="translate(-89.901 -31.633)"/>
  <path id="Trazado_64" data-name="Trazado 64" d="M31.1,37.506a1.716,1.716,0,1,1,1.716-1.716A1.718,1.718,0,0,1,31.1,37.506Zm0-2.347a.631.631,0,1,0,.631.631A.632.632,0,0,0,31.1,35.159Zm0,0" transform="translate(-27.11 -31.435)"/>
  <path id="Trazado_65" data-name="Trazado 65" d="M167.231,37.935a1.716,1.716,0,1,1,1.716-1.716A1.718,1.718,0,0,1,167.231,37.935Zm0-2.347a.631.631,0,1,0,.631.631A.632.632,0,0,0,167.231,35.588Zm0,0" transform="translate(-152.695 -31.831)"/>
</svg>
